<svg width="43" height="44" viewBox="0 0 43 44" fill="none" xmlns="http://www.w3.org/2000/svg">
<path d="M42.4303 22.11C42.3803 30.5 37.1703 38.95 26.0303 43.99L17.8203 39.73C27.9403 34.78 33.0403 28.39 33.2803 22.11C33.5303 15.5 28.4303 9.01 18.1503 4.4L26.6003 0C36.9203 4.69 42.4803 13.36 42.4303 22.11Z" fill="#3659FA"/>
<path d="M26.2 22.38C26.2 23.95 25.57 25.23 24.07 26.14L9.19 35.24L0.27 30.6L14.4 22.38L13.94 22.11L0 13.83L9.06 9.10999C12.9 11.52 19.24 15.48 24.12 18.53C25.45 19.35 26.2 20.67 26.2 22.38Z" fill="#3659FA"/>
</svg>
