<svg width="121" height="33" viewBox="0 0 121 33" fill="none" xmlns="http://www.w3.org/2000/svg">
<path d="M25.5198 6.34007C24.6298 4.44007 23.3998 2.96007 21.8198 1.90007C20.2498 0.850068 18.4298 0.320068 16.3798 0.320068C15.2398 0.320068 14.1898 0.490068 13.2498 0.820068C12.3098 1.16007 11.4898 1.63007 10.7798 2.23007C10.0798 2.84007 9.49984 3.55007 9.03984 4.36007H8.89985V0.780068H0.0898438V5.14007H3.13984V32.9301H8.98984V21.5901H9.07985C9.55984 22.4501 10.1398 23.1901 10.8298 23.8201C11.5198 24.4501 12.3198 24.9301 13.2498 25.2901C14.1798 25.6401 15.1998 25.8101 16.3398 25.8101C18.4298 25.8101 20.2698 25.2901 21.8398 24.2301C23.4198 23.1801 24.6498 21.6901 25.5298 19.7801C26.4098 17.8701 26.8498 15.6301 26.8498 13.0501C26.8498 10.4701 26.3998 8.25007 25.5198 6.34007ZM20.1998 17.3001C19.7098 18.4801 19.0098 19.3801 18.1198 20.0201C17.2198 20.6501 16.1498 20.9701 14.9098 20.9701C13.6698 20.9701 12.5698 20.6401 11.6298 19.9901C10.6998 19.3301 9.97985 18.4101 9.47985 17.2201C8.96985 16.0301 8.71984 14.6501 8.71984 13.0501C8.71984 11.4501 8.96985 10.0601 9.47985 8.88007C9.97985 7.70007 10.6998 6.79007 11.6198 6.13007C12.5498 5.49007 13.6398 5.16007 14.9098 5.16007C16.1798 5.16007 17.2198 5.47007 18.1198 6.10007C19.0098 6.73007 19.7098 7.63007 20.1998 8.80007C20.6998 9.97007 20.9498 11.3901 20.9498 13.0501C20.9498 14.7101 20.6998 16.1201 20.1998 17.3001Z" fill="white"/>
<path d="M30.6396 25.33V0.77002H36.2796V4.85002H36.3997C36.8397 3.44002 37.5596 2.37002 38.5596 1.63002C39.5496 0.890019 40.8296 0.52002 42.3896 0.52002C42.7596 0.52002 43.1096 0.530019 43.4596 0.550019C43.7996 0.570019 44.0896 0.600019 44.3196 0.630019V5.84002C44.1096 5.79002 43.7296 5.75002 43.2096 5.70002C42.6796 5.65002 42.1396 5.63002 41.5896 5.63002C40.6296 5.63002 39.7596 5.84002 38.9896 6.27002C38.2196 6.70002 37.6096 7.33002 37.1696 8.18002C36.7296 9.02002 36.4996 10.06 36.4996 11.3V25.32H30.6497L30.6396 25.33Z" fill="white"/>
<path d="M57.7798 25.88C55.3898 25.88 53.2898 25.34 51.4798 24.27C49.6698 23.2 48.2598 21.7 47.2598 19.78C46.2598 17.86 45.7598 15.63 45.7598 13.09C45.7598 10.55 46.2598 8.32001 47.2598 6.39001C48.2598 4.46001 49.6698 2.96001 51.4798 1.88001C53.2898 0.80001 55.3898 0.26001 57.7798 0.26001C60.1698 0.26001 62.2998 0.80001 64.0998 1.88001C65.8998 2.96001 67.2998 4.46001 68.2998 6.39001C69.2998 8.32001 69.7998 10.55 69.7998 13.09C69.7998 15.63 69.2998 17.86 68.2998 19.78C67.2998 21.7 65.8998 23.2 64.0998 24.27C62.2998 25.34 60.1898 25.88 57.7798 25.88ZM57.7798 21.04C59.0698 21.04 60.1598 20.71 61.0698 20.05C61.9798 19.39 62.6798 18.47 63.1698 17.27C63.6598 16.08 63.8998 14.68 63.8998 13.09C63.8998 11.5 63.6598 10.08 63.1698 8.89001C62.6798 7.70001 61.9798 6.77001 61.0698 6.10001C60.1598 5.43001 59.0598 5.10001 57.7798 5.10001C56.4998 5.10001 55.4398 5.43001 54.5198 6.10001C53.5998 6.77001 52.8998 7.69001 52.4098 8.89001C51.9198 10.08 51.6798 11.48 51.6798 13.09C51.6798 14.7 51.9198 16.09 52.4098 17.28C52.8998 18.47 53.5998 19.39 54.5098 20.05C55.4198 20.71 56.5098 21.04 57.7798 21.04Z" fill="white"/>
<path d="M95.4096 0.780029L86.1796 25.33H79.7796L70.5596 0.780029H76.7496L81.2296 13.7C81.6996 15.1 82.1396 16.51 82.5596 17.92C82.7296 18.51 82.8996 19.1 83.0696 19.69C83.2396 19.1 83.3996 18.51 83.5696 17.92C83.9696 16.51 84.3996 15.1 84.8796 13.7L89.2796 0.780029H95.4096Z" fill="white"/>
<path d="M117.84 20.9701V8.67007C117.84 7.31007 117.6 6.11007 117.11 5.07007C116.62 4.03007 115.92 3.16007 115.02 2.45007C114.12 1.75007 113.05 1.22007 111.81 0.860068C110.57 0.500068 109.2 0.320068 107.7 0.320068C105.68 0.320068 103.9 0.640069 102.37 1.27007C100.84 1.91007 99.6199 2.80007 98.7099 3.94007C97.7999 5.09007 97.2599 6.46007 97.0699 8.05007L102.63 8.30007C102.72 7.65007 102.98 7.06007 103.41 6.54007C103.84 6.02007 104.41 5.60007 105.12 5.30007C105.83 4.99007 106.66 4.84007 107.61 4.84007C108.56 4.84007 109.36 4.99007 110.02 5.30007C110.67 5.60007 111.18 6.03007 111.53 6.57007C111.88 7.11007 112.06 7.75007 112.06 8.49007V8.65007C112.06 9.20007 111.86 9.60007 111.46 9.86007C111.06 10.1301 110.42 10.3201 109.54 10.4501C108.65 10.5801 107.45 10.7301 105.96 10.9001C104.72 11.0201 103.52 11.2201 102.36 11.5101C101.21 11.7901 100.18 12.2001 99.2899 12.7401C98.3899 13.2901 97.6899 14.0101 97.1699 14.9301C96.6499 15.8401 96.3799 16.9901 96.3799 18.3801C96.3799 20.0001 96.7499 21.3601 97.4899 22.4501C98.2199 23.5501 99.2199 24.3701 100.48 24.9201C101.74 25.4701 103.19 25.7501 104.81 25.7501C106.12 25.7501 107.25 25.5801 108.18 25.2401C109.11 24.9001 109.89 24.4401 110.52 23.8501C111.15 23.2601 111.65 22.6101 112.01 21.8901H112.15V25.3301H120.9V20.9701H117.84ZM112.08 16.3101C112.08 17.2501 111.86 18.1001 111.41 18.8701C110.95 19.6401 110.3 20.2601 109.43 20.7301C108.57 21.2001 107.51 21.4301 106.25 21.4301C105.41 21.4301 104.68 21.3101 104.05 21.0601C103.42 20.8201 102.93 20.4601 102.58 20.0001C102.23 19.5301 102.05 18.9801 102.05 18.3301C102.05 17.5801 102.26 16.9701 102.68 16.5001C103.11 16.0201 103.66 15.6501 104.36 15.3801C105.06 15.1201 105.83 14.9201 106.67 14.8001C107.22 14.7201 107.77 14.6401 108.33 14.5501C108.89 14.4501 109.42 14.3601 109.93 14.2601C110.43 14.1601 110.87 14.0601 111.25 13.9501C111.62 13.8401 111.9 13.7201 112.08 13.5801V16.3101Z" fill="white"/>
</svg>
